<?xml version="1.0"?>
<svg xmlns="http://www.w3.org/2000/svg" xmlns:xlink="http://www.w3.org/1999/xlink" xmlns:svgjs="http://svgjs.com/svgjs" version="1.1" width="512" height="512" x="0" y="0" viewBox="0 0 496 496" style="enable-background:new 0 0 512 512" xml:space="preserve" class=""><g transform="matrix(0.65,0,0,0.65,86.79999999999998,86.8000000000001)">
<g xmlns="http://www.w3.org/2000/svg">
	<g>
		<g>
			<rect x="216" y="24" width="16" height="16" fill="#000000" data-original="#000000" style="" class=""/>
			<rect x="264" y="24" width="16" height="16" fill="#000000" data-original="#000000" style="" class=""/>
			<rect x="336" y="24" width="16" height="16" fill="#000000" data-original="#000000" style="" class=""/>
			<rect x="384" y="24" width="16" height="16" fill="#000000" data-original="#000000" style="" class=""/>
			<path d="M496,16V0h-24h-8h-72h-48h-72h-8h-40c-4.64,0-9.024,1.04-13.008,2.824c-18.272,2.736-36.264,7.56-53.552,14.344     c-4.336,0.448-8.648,1.736-12.656,4.056l-41.56,24c-3.96,2.288-7.264,5.368-9.864,8.968     c-14.456,11.512-27.624,24.68-39.192,39.184c-3.528,2.56-6.616,5.832-8.936,9.84l-24,41.568c-2.288,3.96-3.6,8.28-4.064,12.696     C10.408,174.664,5.592,192.648,2.824,211C1.04,214.976,0,219.36,0,224v48c0,4.64,1.04,9.016,2.816,13     c2.736,18.256,7.56,36.248,14.344,53.544c0.456,4.408,1.776,8.72,4.064,12.672l24,41.568c2.336,4.04,5.44,7.344,9,9.912     c11.496,14.424,24.648,27.584,39.144,39.136c2.608,3.592,5.896,6.664,9.856,8.944l41.56,24c4.04,2.328,8.384,3.632,12.744,4.072     c17.184,6.76,35.16,11.576,53.48,14.336C214.984,494.96,219.368,496,224,496h40h8h72h48h72h8h24v-16h-24h-8     c-8.824,0-16-7.176-16-16c0-8.824,7.176-16,16-16h8h24v-16h-24h-8h-72h-48h-72h-8h-40c-6.784,0-13.064,2.152-18.248,5.776     l-15.648-3.2c-2.624-6.176-7.08-11.624-13.328-15.224l-41.56-24c-5.736-3.312-12.216-4.68-18.688-4.12l-11.952-10.6     c0.816-6.656-0.32-13.6-3.92-19.84l-24-41.568c-3.4-5.872-8.4-10.224-14.128-12.904l-5.056-15.16     C61.52,285.792,64,279.208,64,272v-48c0-6.784-2.152-13.056-5.768-18.24l3.184-15.552c6.192-2.616,11.624-7.168,15.24-13.424     l24-41.568c3.392-5.872,4.664-12.384,4.12-18.68l10.504-11.848c1.328,0.168,2.664,0.264,3.992,0.264     c5.544,0,11.024-1.456,15.952-4.304l41.56-24c5.872-3.392,10.232-8.392,12.912-14.12l15.16-5.056     C210.208,61.52,216.792,64,224,64h40h8h72h48h72h8h24V48h-24h-8c-8.824,0-16-7.176-16-16s7.176-16,16-16h8H496z M419.552,448     h16.904c-2.76,4.728-4.456,10.144-4.456,16c0,5.856,1.696,11.272,4.448,16h-16.904c2.76-4.728,4.456-10.144,4.456-16     C424,458.144,422.304,452.728,419.552,448z M344,448h48c8.824,0,16,7.176,16,16c0,8.824-7.176,16-16,16h-48     c-8.824,0-16-7.176-16-16C328,455.176,335.176,448,344,448z M299.552,448h16.904c-2.76,4.728-4.456,10.144-4.456,16     c0,5.856,1.696,11.272,4.448,16h-16.896c2.752-4.728,4.448-10.144,4.448-16C304,458.144,302.304,452.728,299.552,448z M224,448     h40h8c8.824,0,16,7.176,16,16c0,8.824-7.176,16-16,16h-8h-40c-8.824,0-16-7.176-16-16C208,455.176,215.176,448,224,448z      M188.496,463.064c2.144-3.712,3.416-7.68,3.96-11.68l1.984,0.408c-1.56,3.76-2.44,7.88-2.44,12.208     c0,3.304,0.648,6.424,1.576,9.424c-3.704-0.896-7.384-1.88-11.04-2.952C184.824,468.352,186.864,465.896,188.496,463.064z      M105.352,415.064c2.136-3.704,5.584-6.352,9.712-7.456c1.384-0.368,2.784-0.552,4.168-0.552c2.784,0,5.52,0.728,7.984,2.152     l41.56,24c7.64,4.408,10.272,14.216,5.856,21.856c-4.416,7.64-14.216,10.272-21.856,5.856l-41.56-24     c-3.704-2.136-6.352-5.584-7.464-9.712C102.648,423.08,103.216,418.768,105.352,415.064z M25.56,182.432     c2.152,2.32,4.552,4.432,7.376,6.064c3.712,2.144,7.672,3.44,11.68,3.976l-0.4,1.968C40.448,192.88,36.328,192,32,192     c-3.304,0-6.424,0.648-9.424,1.576C23.48,189.832,24.472,186.12,25.56,182.432z M16,272v-48c0-8.824,7.176-16,16-16     s16,7.176,16,16v48c0,8.824-7.176,16-16,16S16,280.824,16,272z M25.56,313.568c-1.088-3.696-2.088-7.408-2.984-11.144     c3,0.928,6.12,1.576,9.424,1.576c4.288,0,8.36-0.88,12.104-2.408l0.64,1.928c-4.048,0.528-8.056,1.824-11.808,3.992     C30.112,309.136,27.712,311.24,25.56,313.568z M98.208,396.36l1.488,1.32c-3.28,2.52-6.072,5.688-8.2,9.384     c-1.632,2.824-2.648,5.848-3.352,8.936c-2.76-2.624-5.456-5.312-8.08-8.072c3.04-0.696,6.032-1.792,8.872-3.432     C92.648,402.352,95.744,399.552,98.208,396.36z M62.8,327.216l24,41.568c4.416,7.64,1.784,17.448-5.856,21.856     c-3.688,2.144-7.992,2.72-12.144,1.6c-4.128-1.104-7.576-3.752-9.712-7.456l-24-41.576c-2.144-3.696-2.712-8.008-1.6-12.136     c1.104-4.128,3.752-7.576,7.456-9.712c2.512-1.456,5.256-2.144,7.968-2.144C54.448,319.216,59.84,322.088,62.8,327.216z      M86.8,127.216l-24,41.568c-4.408,7.64-14.2,10.272-21.856,5.864c-3.704-2.144-6.352-5.592-7.456-9.72     c-1.112-4.128-0.536-8.44,1.6-12.144l24-41.568c2.136-3.696,5.584-6.344,9.712-7.456c1.384-0.368,2.784-0.552,4.168-0.552     c2.776,0,5.504,0.72,7.968,2.144C88.576,109.768,91.208,119.576,86.8,127.216z M98.296,99.728     c-2.488-3.24-5.608-6.064-9.36-8.224c-2.856-1.648-5.888-2.656-8.952-3.344c2.656-2.792,5.368-5.504,8.16-8.16     c0.704,3.088,1.728,6.12,3.36,8.936c2.112,3.656,4.872,6.792,8.112,9.304L98.296,99.728z M168.784,62.792l-41.56,24     c-3.704,2.144-8,2.704-12.152,1.6c-4.128-1.104-7.576-3.752-9.712-7.456c-2.144-3.696-2.704-8.008-1.6-12.144     c1.112-4.128,3.76-7.576,7.464-9.712l41.56-24c2.512-1.448,5.256-2.144,7.976-2.144c5.528,0,10.92,2.872,13.88,8     C179.056,48.576,176.424,58.384,168.784,62.792z M192.48,44.736c-0.528-4.048-1.824-8.056-3.984-11.8     c-1.648-2.856-3.776-5.24-6.08-7.376c3.696-1.088,7.416-2.088,11.168-2.992C192.648,25.576,192,28.696,192,32     c0,4.28,0.88,8.36,2.408,12.096L192.48,44.736z M272,48h-8h-40c-8.824,0-16-7.176-16-16s7.176-16,16-16h40h8     c8.824,0,16,7.176,16,16S280.824,48,272,48z M316.448,48h-16.904c2.76-4.728,4.456-10.144,4.456-16s-1.696-11.272-4.448-16     h16.896C313.696,20.728,312,26.144,312,32S313.696,43.272,316.448,48z M392,48h-48c-8.824,0-16-7.176-16-16s7.176-16,16-16h48     c8.824,0,16,7.176,16,16S400.824,48,392,48z M436.448,48h-16.904c2.76-4.728,4.456-10.144,4.456-16s-1.696-11.272-4.448-16     h16.904C433.696,20.728,432,26.144,432,32S433.696,43.272,436.448,48z" fill="#000000" data-original="#000000" style="" class=""/>
			<rect x="456" y="24" width="16" height="16" fill="#000000" data-original="#000000" style="" class=""/>
			
				<rect x="111.207" y="64.937" transform="matrix(-0.5001 -0.866 0.866 -0.5001 115.6638 212.6317)" width="15.991" height="15.991" fill="#000000" data-original="#000000" style="" class=""/>
			
				<rect x="152.789" y="40.935" transform="matrix(-0.5001 -0.866 0.866 -0.5001 198.8252 212.6334)" width="15.991" height="15.991" fill="#000000" data-original="#000000" style="" class=""/>
			<rect x="40.956" y="152.791" transform="matrix(-0.8661 -0.4999 0.4999 -0.8661 10.9779 324.5225)" width="16" height="16" fill="#000000" data-original="#000000" style="" class=""/>
			<rect x="64.938" y="111.217" transform="matrix(-0.8661 -0.4999 0.4999 -0.8661 76.513 258.9296)" width="16" height="16" fill="#000000" data-original="#000000" style="" class=""/>
			<rect x="24" y="264" width="16" height="16" fill="#000000" data-original="#000000" style="" class=""/>
			<rect x="24" y="216" width="16" height="16" fill="#000000" data-original="#000000" style="" class=""/>
			<rect x="64.94" y="368.807" transform="matrix(0.4999 0.8661 -0.8661 0.4999 362.8262 125.2718)" width="16" height="16" fill="#000000" data-original="#000000" style="" class=""/>
			<rect x="40.931" y="327.213" transform="matrix(-0.866 0.5 -0.5 -0.866 258.9154 601.0482)" width="16" height="16" fill="#000000" data-original="#000000" style="" class=""/>
			<rect x="152.768" y="439.052" transform="matrix(0.866 0.5001 -0.5001 0.866 245.132 -20.476)" width="15.991" height="15.991" fill="#000000" data-original="#000000" style="" class=""/>
			<rect x="111.19" y="415.065" transform="matrix(0.866 0.5001 -0.5001 0.866 227.562 -2.8972)" width="15.991" height="15.991" fill="#000000" data-original="#000000" style="" class=""/>
			<rect x="264" y="456" width="16" height="16" fill="#000000" data-original="#000000" style="" class=""/>
			<rect x="216" y="456" width="16" height="16" fill="#000000" data-original="#000000" style="" class=""/>
			<rect x="336" y="456" width="16" height="16" fill="#000000" data-original="#000000" style="" class=""/>
			<rect x="384" y="456" width="16" height="16" fill="#000000" data-original="#000000" style="" class=""/>
			<rect x="456" y="456" width="16" height="16" fill="#000000" data-original="#000000" style="" class=""/>
			<path d="M416,261.768V234.24l-17.304-5.768c-1.72-13.288-5.224-26.312-10.464-38.84l12.144-13.696l-13.768-23.848l-17.952,3.672     c-8.176-10.688-17.712-20.216-28.408-28.408l3.672-17.952l-23.84-13.768l-13.696,12.152c-12.536-5.24-25.56-8.752-38.848-10.472     L261.768,80H234.24l-5.768,17.304c-13.288,1.72-26.312,5.232-38.848,10.472l-13.696-12.152l-23.84,13.768l3.672,17.952     c-10.696,8.184-20.224,17.712-28.408,28.408L109.4,152.08l-13.768,23.848l12.144,13.696c-5.232,12.536-8.744,25.56-10.464,38.84     L80,234.232v27.528l17.304,5.768c1.72,13.288,5.224,26.312,10.464,38.84l-12.144,13.696l13.768,23.848l17.952-3.672     c8.176,10.688,17.712,20.216,28.408,28.408L152.08,386.6l23.84,13.768l13.696-12.152c12.536,5.24,25.56,8.752,38.848,10.472     L234.232,416h27.528l5.768-17.304c13.288-1.72,26.312-5.232,38.848-10.472l13.696,12.152l23.84-13.768l-3.672-17.952     c10.696-8.184,20.224-17.712,28.408-28.408l17.952,3.672l13.768-23.848l-12.144-13.696c5.232-12.536,8.744-25.56,10.464-38.84     L416,261.768z M383.832,255.624l-0.496,5.192c-1.4,15.016-5.36,29.72-11.768,43.704l-2.168,4.736l11.344,12.8l-2.232,3.872     l-16.752-3.432l-3.024,4.24c-8.832,12.392-19.592,23.16-31.992,32l-4.24,3.016l3.432,16.752l-3.872,2.232l-12.8-11.344     l-4.744,2.168c-13.976,6.408-28.688,10.368-43.704,11.776l-5.192,0.488L250.232,400h-4.472l-5.392-16.168l-5.192-0.488     c-15.016-1.408-29.728-5.368-43.704-11.776l-4.744-2.168l-12.8,11.344l-3.872-2.232l3.432-16.752l-4.24-3.016     c-12.4-8.832-23.168-19.6-31.992-32l-3.024-4.24l-16.752,3.432l-2.232-3.872l11.344-12.8l-2.168-4.736     c-6.408-13.984-10.368-28.688-11.768-43.704l-0.496-5.192l-16.16-5.4v-4.472l16.168-5.392l0.496-5.192     c1.4-15.016,5.36-29.72,11.768-43.704l2.168-4.736l-11.344-12.8l2.232-3.872l16.752,3.432l3.024-4.24     c8.832-12.392,19.592-23.16,31.992-32l4.24-3.016l-3.432-16.752l3.872-2.232l12.8,11.344l4.744-2.168     c13.976-6.408,28.688-10.368,43.704-11.776l5.192-0.488L245.768,96h4.472l5.392,16.168l5.192,0.488     c15.016,1.408,29.728,5.368,43.704,11.776l4.744,2.168l12.8-11.344l3.872,2.232l-3.432,16.752l4.24,3.016     c12.4,8.832,23.168,19.6,31.992,32l3.024,4.24l16.752-3.432l2.232,3.872l-11.344,12.8l2.168,4.736     c6.408,13.984,10.368,28.688,11.768,43.704l0.496,5.192l16.16,5.4v4.472L383.832,255.624z" fill="#000000" data-original="#000000" style="" class=""/>
			<path d="M248,176c-39.704,0-72,32.304-72,72s32.296,72,72,72c16.32,0,32.304-5.608,45.008-15.8l-10.016-12.488     C272.976,299.752,260.872,304,248,304c-30.872,0-56-25.12-56-56s25.128-56,56-56s56,25.12,56,56c0,12.872-4.248,24.976-12.28,35     l12.488,10.008C314.392,280.296,320,264.312,320,248C320,208.304,287.704,176,248,176z" fill="#000000" data-original="#000000" style="" class=""/>
			<rect x="240" y="208" width="16" height="16" fill="#000000" data-original="#000000" style="" class=""/>
			<rect x="208" y="256" width="16" height="16" fill="#000000" data-original="#000000" style="" class=""/>
			<rect x="272" y="256" width="16" height="16" fill="#000000" data-original="#000000" style="" class=""/>
		</g>
	</g>
</g>
<g xmlns="http://www.w3.org/2000/svg">
</g>
<g xmlns="http://www.w3.org/2000/svg">
</g>
<g xmlns="http://www.w3.org/2000/svg">
</g>
<g xmlns="http://www.w3.org/2000/svg">
</g>
<g xmlns="http://www.w3.org/2000/svg">
</g>
<g xmlns="http://www.w3.org/2000/svg">
</g>
<g xmlns="http://www.w3.org/2000/svg">
</g>
<g xmlns="http://www.w3.org/2000/svg">
</g>
<g xmlns="http://www.w3.org/2000/svg">
</g>
<g xmlns="http://www.w3.org/2000/svg">
</g>
<g xmlns="http://www.w3.org/2000/svg">
</g>
<g xmlns="http://www.w3.org/2000/svg">
</g>
<g xmlns="http://www.w3.org/2000/svg">
</g>
<g xmlns="http://www.w3.org/2000/svg">
</g>
<g xmlns="http://www.w3.org/2000/svg">
</g>
</g></svg>
